<?xml version="1.0" encoding="UTF-8"?>
<svg width="14px" height="11px" viewBox="0 0 14 11" version="1.1" xmlns="http://www.w3.org/2000/svg" xmlns:xlink="http://www.w3.org/1999/xlink">
    <title>3615BDAE-F303-4BB6-9AD5-5BD57968D79B</title>
    <g id="Manager" stroke="none" stroke-width="1" fill="none" fill-rule="evenodd">
        <g id="New-order-assigned-to" transform="translate(-165.000000, -409.000000)" fill-rule="nonzero">
            <g id="dashboard" transform="translate(165.000000, 409.000000)">
                <path d="M7.24217694,7.875 C7.5913207,7.875 7.875,7.57944012 7.875,7.21700554 C7.875,6.85535774 7.5913207,6.56185842 7.24217694,6.56185842 L4.375,4.375 L6.60931774,7.25922839 C6.63005538,7.6025559 6.90589485,7.875 7.24217694,7.875 Z" id="Path" fill="#FFBE00"></path>
                <rect id="Rectangle" fill="#FFBE00" x="4.375" y="8.75" width="6.125" height="1.75"></rect>
                <path d="M11.9497468,2.07111166 C10.6275819,0.73552851 8.86973246,0 7,0 C5.1302349,0 3.37235283,0.73552851 2.05022054,2.07111166 C0.728088253,3.4066948 0,5.18242791 0,7.07121528 C0,8.29077687 0.304153417,9.46282864 0.875220306,10.5 L2.18354672,10.5 L3.14045992,9.94185028 L2.71786324,9.20239833 L1.48741106,9.92009006 C1.05270569,9.06511111 0.807137462,8.09661633 0.807137462,7.07121528 C0.807137462,6.8897482 0.815296959,6.71016042 0.830343072,6.53255084 L2.29748594,6.79387134 L2.44425898,5.95300357 L0.959850611,5.68861686 C1.22509955,4.5055531 1.82315805,3.4487316 2.64902972,2.62411805 L3.65476934,3.83494259 L4.3022744,3.28612338 L3.28889749,2.06616615 C4.21813367,1.36129977 5.34926844,0.914259069 6.57740332,0.83028439 L6.57740332,2.4496736 L7.42259668,2.4496736 L7.42259668,0.83028439 C8.65073156,0.914325009 9.78186633,1.36133274 10.7111351,2.06619912 L9.6977256,3.28612338 L10.345198,3.83494259 L11.3509703,2.62408508 C12.1768093,3.4487316 12.7748678,4.5055531 13.0401168,5.68858389 L11.555741,5.95303654 L11.7025467,6.79383837 L13.1695917,6.5324849 C13.1846378,6.71012745 13.1927973,6.88968226 13.1927973,7.07114934 C13.1927973,8.09661633 12.9473269,9.06514408 12.5125563,9.92005709 L11.2820715,9.2024313 L10.8595074,9.94185028 L11.816388,10.5 L13.1247797,10.5 C13.6958792,9.4627627 14,8.29071093 14,7.07114934 C14,5.18239494 13.2718465,3.40662886 11.9497468,2.07111166 Z" id="Path" fill="#C1C7D0"></path>
            </g>
        </g>
    </g>
</svg>