<?xml version="1.0" encoding="UTF-8"?>
<svg width="25px" height="17px" viewBox="0 0 25 17" version="1.1" xmlns="http://www.w3.org/2000/svg" xmlns:xlink="http://www.w3.org/1999/xlink">
    <title>962431B1-4A18-44ED-A00C-DD4CB47496EB</title>
    <defs>
        <filter id="filter-1">
            <feColorMatrix in="SourceGraphic" type="matrix" values="0 0 0 0 0.968627 0 0 0 0 0.709804 0 0 0 0 0.000000 0 0 0 1.000000 0"></feColorMatrix>
        </filter>
    </defs>
    <g id="Manager" stroke="none" stroke-width="1" fill="none" fill-rule="evenodd">
        <g id="New-order-assigned-to" transform="translate(-30.000000, -64.000000)">
            <g id="noun_menu_1166841" transform="translate(30.000000, 61.000000)" filter="url(#filter-1)">
                <g transform="translate(0.000000, 3.000000)">
                    <path d="M17.2024624,9.52380952 L1.88098495,9.52380952 C0.85499316,9.52380952 0,8.98268398 0,8.33333333 L0,8.33333333 C0,7.68398268 0.85499316,7.14285714 1.88098495,7.14285714 L17.2366621,7.14285714 C18.2626539,7.14285714 19.1176471,7.68398268 19.1176471,8.33333333 L19.1176471,8.33333333 C19.0834473,8.98268398 18.2626539,9.52380952 17.2024624,9.52380952 Z" id="Path" fill="#000000" fill-rule="nonzero"></path>
                    <path d="M10.6112637,16.6666667 L1.88873626,16.6666667 C0.858516484,16.6666667 0,16.1255411 0,15.4761905 L0,15.4761905 C0,14.8268398 0.858516484,14.2857143 1.88873626,14.2857143 L10.6112637,14.2857143 C11.6414835,14.2857143 12.5,14.8268398 12.5,15.4761905 L12.5,15.4761905 C12.5,16.1471861 11.6414835,16.6666667 10.6112637,16.6666667 Z" id="Path" fill="#000000" fill-rule="nonzero"></path>
                    <path d="M23.0926431,2.38095238 L1.873297,2.38095238 C0.851498638,2.38095238 0,1.83982684 0,1.19047619 L0,1.19047619 C0,0.541125541 0.851498638,0 1.873297,0 L23.126703,0 C24.1485014,0 25,0.541125541 25,1.19047619 L25,1.19047619 C24.9659401,1.83982684 24.1485014,2.38095238 23.0926431,2.38095238 Z" id="Path" fill="#000000" fill-rule="nonzero"></path>
                </g>
            </g>
        </g>
    </g>
</svg>