<?xml version="1.0" encoding="UTF-8"?>
<svg width="10px" height="10px" viewBox="0 0 10 10" version="1.1" xmlns="http://www.w3.org/2000/svg" xmlns:xlink="http://www.w3.org/1999/xlink">
    <title>A25F86A8-388E-48E1-AD39-D635D4C0E314</title>
    <g id="Manager" stroke="none" stroke-width="1" fill="none" fill-rule="evenodd">
        <g id="New-order-assigned-to" transform="translate(-41.000000, -409.000000)" fill-rule="nonzero">
            <g id="Group" transform="translate(41.000000, 409.000000)">
                <path d="M5,0.338093103 C2.24280357,0.338093103 0,2.50356207 0,5.16567931 C0,7.82779655 2.24280714,9.99326552 5,9.99326552 C7.75719286,9.99326552 10,7.82779655 10,5.16567931 C10,2.50356207 7.75719643,0.338093103 5,0.338093103 Z M5,1.02774828 C7.37116786,1.02774828 9.28571429,2.87627931 9.28571429,5.16567931 C9.28571429,7.45507931 7.37116429,9.30361034 5,9.30361034 C2.62883571,9.30361034 0.714285714,7.45507931 0.714285714,5.16567931 C0.714285714,2.87627931 2.62883214,1.02774828 5,1.02774828 Z" id="Shape" fill="#C1C7D0"></path>
                <path d="M4.64285714,2.75188621 L4.64285714,5.16567931 C4.64287561,5.25712714 4.680512,5.34482372 4.74748929,5.40948276 L6.51506786,7.11611034 C6.60464283,7.20620349 6.7376659,7.24249917 6.86283026,7.21099817 C6.98799461,7.17949717 7.08573992,7.08512238 7.11836596,6.96427404 C7.15099199,6.8434257 7.11340005,6.71498963 7.02008929,6.62850345 L5.35714286,5.0229 L5.35714286,2.75188621 C5.3584646,2.65867962 5.32065114,2.56892616 5.25231834,2.50307634 C5.18398554,2.43722652 5.09095411,2.40088953 4.99442143,2.40234483 C4.79745094,2.40531667 4.64016015,2.56170241 4.64285714,2.75188621 Z" id="Path" fill="#FFBE00"></path>
            </g>
        </g>
    </g>
</svg>