<?xml version="1.0" encoding="UTF-8"?>
<svg width="12px" height="12px" viewBox="0 0 12 12" version="1.1" xmlns="http://www.w3.org/2000/svg" xmlns:xlink="http://www.w3.org/1999/xlink">
    <title>EA2E7307-2E60-44DF-A82D-A915B9E7EADA</title>
    <g id="Manager" stroke="none" stroke-width="1" fill="none" fill-rule="evenodd">
        <g id="New-order-assigned-to" transform="translate(-264.000000, -409.000000)" fill-rule="nonzero">
            <g id="price" transform="translate(264.000000, 409.000000)">
                <path d="M9.9598125,1.6401875 C8.9021125,0.5824875 7.4958125,0 6,0 C4.5041875,0 3.0978875,0.5824875 2.0401875,1.6401875 C0.982509375,2.6978875 0.4,4.1041875 0.4,5.6 C0.4,7.0958125 0.982509375,8.5021125 2.0401875,9.5598125 C3.0978875,10.6175125 4.5041875,11.2 6,11.2 C7.4958125,11.2 8.9021125,10.6175125 9.9598125,9.5598125 C11.0174906,8.5021125 11.6,7.0958125 11.6,5.6 C11.6,4.1041875 11.0174906,2.6978875 9.9598125,1.6401875 Z M6,10.54375 C3.27400313,10.54375 1.05625,8.32599688 1.05625,5.6 C1.05625,2.87400312 3.27400313,0.65625 6,0.65625 C8.72599687,0.65625 10.94375,2.87400312 10.94375,5.6 C10.94375,8.32599688 8.72599688,10.54375 6,10.54375 Z" id="Shape" fill="#C1C7D0"></path>
                <path d="M6.3243156,5.66163158 L5.6756844,5.66163158 C5.30615396,5.66163158 5.00553579,5.32569925 5.00553579,4.91278195 C5.00553579,4.49984211 5.30617415,4.16390977 5.6756844,4.16390977 L6.9729266,4.16390977 C7.14014079,4.16390977 7.27570459,4.01242105 7.27570459,3.82556391 C7.27570459,3.63870677 7.14014079,3.48721805 6.9729266,3.48721805 L6.30277799,3.48721805 L6.30277799,2.73834586 C6.30277799,2.55148872 6.16721419,2.4 6,2.4 C5.83278581,2.4 5.69722201,2.55148872 5.69722201,2.73834586 L5.69722201,3.48721805 L5.67570459,3.48721805 C4.97227058,3.48721805 4.4,4.12673684 4.4,4.91278195 C4.4,5.69882707 4.97229077,6.33832331 5.67570459,6.33832331 L6.32433578,6.33832331 C6.69384604,6.33832331 6.99446421,6.6742782 6.99446421,7.08719549 C6.99446421,7.50011278 6.69384604,7.83606767 6.32433578,7.83606767 L5.02709358,7.83606767 C4.85987939,7.83606767 4.7243156,7.98755639 4.7243156,8.17441353 C4.7243156,8.36127068 4.85987939,8.5127594 5.02709358,8.5127594 L5.69722201,8.5127594 L5.69722201,9.26165414 C5.69722201,9.44851128 5.83278581,9.6 6,9.6 C6.16721419,9.6 6.30277799,9.44851128 6.30277799,9.26165414 L6.30277799,8.5127594 L6.3243156,8.5127594 C7.02772942,8.5127594 7.6,7.8732406 7.6,7.08719549 C7.6,6.30115038 7.02772942,5.66163158 6.3243156,5.66163158 Z" id="Path" fill="#FFBE00"></path>
            </g>
        </g>
    </g>
</svg>