<?xml version="1.0" encoding="UTF-8"?>
<svg width="25px" height="25px" viewBox="0 0 25 25" version="1.1" xmlns="http://www.w3.org/2000/svg" xmlns:xlink="http://www.w3.org/1999/xlink">
    <title>66D598D5-E2D1-4C51-A389-9B082F28A8E6</title>
    <defs>
        <linearGradient x1="50%" y1="0%" x2="50%" y2="100%" id="linearGradient-1">
            <stop stop-color="#080F15" offset="0%"></stop>
            <stop stop-color="#040B11" offset="100%"></stop>
        </linearGradient>
        <linearGradient x1="50%" y1="0%" x2="50%" y2="100%" id="linearGradient-2">
            <stop stop-color="#080F15" offset="0%"></stop>
            <stop stop-color="#040B11" offset="100%"></stop>
        </linearGradient>
        <linearGradient x1="50%" y1="0%" x2="50%" y2="100%" id="linearGradient-3">
            <stop stop-color="#080F15" offset="0%"></stop>
            <stop stop-color="#040B11" offset="100%"></stop>
        </linearGradient>
    </defs>
    <g id="Manager" stroke="none" stroke-width="1" fill="none" fill-rule="evenodd">
        <g id="New-order-assigned-to" transform="translate(-34.000000, -139.000000)" fill-rule="nonzero">
            <g id="sun" transform="translate(34.000000, 139.000000)">
                <path d="M12.5,21.1538462 C11.9689744,21.1538462 11.5384615,21.5094068 11.5384615,21.947981 L11.5384615,24.2058652 C11.5384615,24.6444394 11.9689744,25 12.5,25 C13.0311538,25 13.4615385,24.6444394 13.4615385,24.2058652 L13.4615385,21.947981 C13.4615385,21.5093009 13.0310256,21.1538462 12.5,21.1538462 Z" id="Path" fill="url(#linearGradient-1)"></path>
                <path d="M12.5,3.84615385 C13.0311538,3.84615385 13.4615385,3.49061278 13.4615385,3.05206273 L13.4615385,0.794091115 C13.4615385,0.355541062 13.0311538,0 12.5,0 C11.9689744,0 11.5384615,0.355541062 11.5384615,0.794091115 L11.5384615,3.05206273 C11.5384615,3.49061278 11.9689744,3.84615385 12.5,3.84615385 Z" id="Path" fill="url(#linearGradient-1)"></path>
                <path d="M5.50324119,18.479751 L4.05693037,19.9257574 C3.77599092,20.206595 3.77589504,20.6620927 4.05664272,20.9430262 C4.19711245,21.0835409 4.38120929,21.1538462 4.56530613,21.1538462 C4.74930709,21.1538462 4.93321216,21.0836368 5.07368189,20.9433139 L6.5199927,19.4973075 C6.80093216,19.21647 6.80102804,18.7609722 6.52028036,18.4800388 C6.2393409,18.1990094 5.78408476,18.1990094 5.50324119,18.479751 Z" id="Path" fill="url(#linearGradient-2)"></path>
                <path d="M18.9883649,6.73076923 C19.1723827,6.73076923 19.3564004,6.66056481 19.496883,6.52015596 L20.9431343,5.07425173 C21.2240035,4.79333813 21.2240994,4.33796845 20.9433261,4.05695894 C20.6624568,3.77594943 20.207159,3.77585352 19.9261939,4.05686303 L18.4799426,5.50276726 C18.1990734,5.78358495 18.1989775,6.23905054 18.4797509,6.51996414 C18.6201375,6.66056481 18.8042512,6.73076923 18.9883649,6.73076923 Z" id="Path" fill="url(#linearGradient-2)"></path>
                <path d="M3.84615385,12.5 C3.84615385,11.9689744 3.49059321,11.5384615 3.05201901,11.5384615 L0.794134838,11.5384615 C0.355560638,11.5384615 0,11.9689744 0,12.5 C0,13.0310256 0.355560638,13.4615385 0.794134838,13.4615385 L3.05201901,13.4615385 C3.49059321,13.4615385 3.84615385,13.0310256 3.84615385,12.5 Z" id="Path" fill="url(#linearGradient-3)"></path>
                <path d="M24.2060837,11.5384615 L21.9477624,11.5384615 C21.5092031,11.5384615 21.1538462,11.9689744 21.1538462,12.5 C21.1538462,13.0310256 21.5092031,13.4615385 21.9477624,13.4615385 L24.2060837,13.4615385 C24.6446431,13.4615385 25,13.0310256 25,12.5 C25,11.9691026 24.6446431,11.5384615 24.2060837,11.5384615 Z" id="Path" fill="url(#linearGradient-3)"></path>
                <path d="M5.5028259,6.52014721 C5.64324175,6.66056189 5.82739369,6.73076923 6.01144971,6.73076923 C6.19550573,6.73076923 6.37965767,6.66056189 6.52007352,6.52014721 C6.80100113,6.23922193 6.80100113,5.78373741 6.52007352,5.50281213 L5.07409718,4.05684781 C4.79316956,3.77592253 4.33768126,3.77592253 4.05684956,4.05684781 C3.77592194,4.33777308 3.77592194,4.7932576 4.05684956,5.07408697 L5.5028259,6.52014721 Z" id="Path" fill="url(#linearGradient-2)"></path>
                <path d="M19.4973641,18.4799762 C19.2164342,18.1990462 18.7609421,18.1989503 18.4800122,18.4798803 C18.1989863,18.7608102 18.1989863,19.2163023 18.4799162,19.4971364 L19.9257128,20.9431247 C20.0662257,21.0836376 20.2502833,21.1538462 20.4344367,21.1538462 C20.6184943,21.1538462 20.8026477,21.0836376 20.9430648,20.9432206 C21.2240906,20.6622907 21.2240906,20.2067986 20.9431607,19.9259646 L19.4973641,18.4799762 Z" id="Path" fill="url(#linearGradient-2)"></path>
                <path d="M12.4997117,5.76923077 C8.7885098,5.76923077 5.76923077,8.78871454 5.76923077,12.5001153 C5.76923077,16.2114008 8.7885098,19.2307692 12.4997117,19.2307692 C16.2112596,19.2307692 19.2307692,16.2114008 19.2307692,12.5001153 C19.2307692,8.78871454 16.2111443,5.76923077 12.4997117,5.76923077 Z M12.4997229,17.3076923 C9.84889999,17.3076923 7.69230769,15.151014 7.69230769,12.5001108 C7.69230769,9.84909681 9.84889999,7.69230769 12.4997229,7.69230769 C15.1508783,7.69230769 17.3076923,9.84909681 17.3076923,12.5001108 C17.3076923,15.151014 15.1508783,17.3076923 12.4997229,17.3076923 Z" id="Shape" fill="url(#linearGradient-2)"></path>
            </g>
        </g>
    </g>
</svg>